<svg width="16" height="16" viewBox="0 0 16 16" fill="none" xmlns="http://www.w3.org/2000/svg">
<path d="M15.853 7.07143C15.853 6.47991 15.373 6 14.7815 6H10.1387V1.35714C10.1387 0.765624 9.65876 0.285713 9.06724 0.285713H6.92439C6.33287 0.285713 5.85296 0.765624 5.85296 1.35714V6H1.2101C0.618583 6 0.138672 6.47991 0.138672 7.07143V9.21429C0.138672 9.8058 0.618583 10.2857 1.2101 10.2857H5.85296V14.9286C5.85296 15.5201 6.33287 16 6.92439 16H9.06724C9.65876 16 10.1387 15.5201 10.1387 14.9286V10.2857H14.7815C15.373 10.2857 15.853 9.8058 15.853 9.21429V7.07143Z" fill="white"/>
</svg>
