<svg width="13" height="14" viewBox="0 0 13 14" fill="none" xmlns="http://www.w3.org/2000/svg">
<path d="M12.8908 7.17857C12.8908 6.89397 12.7819 6.61775 12.5811 6.42522L7.13184 0.976004C6.93094 0.775111 6.65472 0.657923 6.37012 0.657923C6.08552 0.657923 5.81766 0.775111 5.61677 0.976004L4.98898 1.60379C4.78809 1.79632 4.6709 2.07254 4.6709 2.35714C4.6709 2.64174 4.78809 2.91797 4.98898 3.11049L7.44155 5.57143H1.54869C0.94601 5.57143 0.569336 6.07366 0.569336 6.64286V7.71429C0.569336 8.28348 0.94601 8.78571 1.54869 8.78571H7.44155L4.98898 11.2383C4.78809 11.4392 4.6709 11.7154 4.6709 12C4.6709 12.2846 4.78809 12.5608 4.98898 12.7617L5.61677 13.3895C5.81766 13.582 6.08552 13.6992 6.37012 13.6992C6.65472 13.6992 6.93094 13.582 7.13184 13.3895L12.5811 7.94029C12.7819 7.7394 12.8908 7.46317 12.8908 7.17857Z" fill="white"/>
</svg>
