<svg width="16" height="16" viewBox="0 0 16 16" fill="none" xmlns="http://www.w3.org/2000/svg">
<path d="M6.80469 1.60547L7.61328 0.832031C7.77734 0.667969 7.97656 0.585938 8.21094 0.585938C8.44531 0.585938 8.64453 0.667969 8.80859 0.832031L15.6289 7.65234C15.793 7.81641 15.875 8.01562 15.875 8.25C15.875 8.48438 15.793 8.68359 15.6289 8.84766L8.80859 15.668C8.64453 15.832 8.44531 15.9141 8.21094 15.9141C7.97656 15.9141 7.77734 15.832 7.61328 15.668L6.80469 14.8945C6.64062 14.7305 6.55859 14.5312 6.55859 14.2969C6.58203 14.0625 6.67578 13.8633 6.83984 13.6992L11.0586 9.65625H0.96875C0.734375 9.65625 0.535156 9.57422 0.371094 9.41016C0.207031 9.24609 0.125 9.04688 0.125 8.8125V7.6875C0.125 7.45312 0.207031 7.25391 0.371094 7.08984C0.535156 6.92578 0.734375 6.84375 0.96875 6.84375H11.0586L6.83984 2.80078C6.67578 2.63672 6.58203 2.4375 6.55859 2.20312C6.55859 1.96875 6.64062 1.76953 6.80469 1.60547Z" fill="#A7B6C2"/>
</svg>
