<svg width="15" height="16" viewBox="0 0 15 16" fill="none" xmlns="http://www.w3.org/2000/svg">
<path d="M1.875 14.4688V4.625H13.125V14.4688C13.125 14.8594 12.9883 15.1914 12.7148 15.4648C12.4414 15.7383 12.1094 15.875 11.7188 15.875H3.28125C2.89062 15.875 2.55859 15.7383 2.28516 15.4648C2.01172 15.1914 1.875 14.8594 1.875 14.4688ZM9.84375 6.96875V13.5312C9.84375 13.668 9.88281 13.7852 9.96094 13.8828C10.0586 13.9609 10.1758 14 10.3125 14C10.4492 14 10.5566 13.9609 10.6348 13.8828C10.7324 13.7852 10.7812 13.668 10.7812 13.5312V6.96875C10.7812 6.83203 10.7324 6.72461 10.6348 6.64648C10.5566 6.54883 10.4492 6.5 10.3125 6.5C10.1758 6.5 10.0586 6.54883 9.96094 6.64648C9.88281 6.72461 9.84375 6.83203 9.84375 6.96875ZM7.03125 6.96875V13.5312C7.03125 13.668 7.07031 13.7852 7.14844 13.8828C7.24609 13.9609 7.36328 14 7.5 14C7.63672 14 7.74414 13.9609 7.82227 13.8828C7.91992 13.7852 7.96875 13.668 7.96875 13.5312V6.96875C7.96875 6.83203 7.91992 6.72461 7.82227 6.64648C7.74414 6.54883 7.63672 6.5 7.5 6.5C7.36328 6.5 7.24609 6.54883 7.14844 6.64648C7.07031 6.72461 7.03125 6.83203 7.03125 6.96875ZM4.21875 6.96875V13.5312C4.21875 13.668 4.25781 13.7852 4.33594 13.8828C4.43359 13.9609 4.55078 14 4.6875 14C4.82422 14 4.93164 13.9609 5.00977 13.8828C5.10742 13.7852 5.15625 13.668 5.15625 13.5312V6.96875C5.15625 6.83203 5.10742 6.72461 5.00977 6.64648C4.93164 6.54883 4.82422 6.5 4.6875 6.5C4.55078 6.5 4.43359 6.54883 4.33594 6.64648C4.25781 6.72461 4.21875 6.83203 4.21875 6.96875ZM13.5938 1.8125C13.7305 1.8125 13.8379 1.86133 13.916 1.95898C14.0137 2.03711 14.0625 2.14453 14.0625 2.28125V3.21875C14.0625 3.35547 14.0137 3.47266 13.916 3.57031C13.8379 3.64844 13.7305 3.6875 13.5938 3.6875H1.40625C1.26953 3.6875 1.15234 3.64844 1.05469 3.57031C0.976562 3.47266 0.9375 3.35547 0.9375 3.21875V2.28125C0.9375 2.14453 0.976562 2.03711 1.05469 1.95898C1.15234 1.86133 1.26953 1.8125 1.40625 1.8125H4.92188L5.18555 1.25586C5.32227 1.00195 5.53711 0.875 5.83008 0.875H9.16992C9.46289 0.875 9.67773 1.00195 9.81445 1.25586L10.0781 1.8125H13.5938Z" fill="#E33E1A"/>
</svg>
