<svg width="16" height="16" viewBox="0 0 16 16" fill="none" xmlns="http://www.w3.org/2000/svg">
<path d="M14.6191 5.03516L13.2715 6.38281C13.0957 6.55859 12.9297 6.55859 12.7734 6.38281L9.52148 3.13086C9.3457 2.97461 9.3457 2.80859 9.52148 2.63281L10.8691 1.28516C11.1426 1.01172 11.4746 0.875 11.8652 0.875C12.2559 0.875 12.5879 1.01172 12.8613 1.28516L14.6191 3.04297C14.8926 3.31641 15.0293 3.64844 15.0293 4.03906C15.0293 4.42969 14.8926 4.76172 14.6191 5.03516ZM8.34961 3.80469C8.52539 3.62891 8.69141 3.62891 8.84766 3.80469L12.0996 7.05664C12.2754 7.21289 12.2754 7.37891 12.0996 7.55469L4.42383 15.2305L0.849609 15.875C0.615234 15.9141 0.410156 15.8457 0.234375 15.6699C0.0585938 15.4941 -0.00976562 15.2891 0.0292969 15.0547L0.673828 11.4805L8.34961 3.80469ZM3.66211 10.25C3.4668 10.4453 3.4668 10.6406 3.66211 10.8359C3.85742 11.0312 4.05273 11.0312 4.24805 10.8359L8.75977 6.32422C8.95508 6.12891 8.95508 5.93359 8.75977 5.73828C8.56445 5.54297 8.36914 5.54297 8.17383 5.73828L3.66211 10.25ZM2.60742 13.2969V11.8906H1.55273L1.20117 13.7656L2.13867 14.7031L4.01367 14.3516V13.2969H2.60742Z" fill="#00A7CF"/>
</svg>
