<svg width="32" height="32" viewBox="0 0 32 32" fill="none" xmlns="http://www.w3.org/2000/svg">
<path d="M29.1867 4.00003H2.81153C1.26397 4.00003 0 5.26224 0 6.81331V25.5627C0 27.1068 1.25696 28.3742 2.81153 28.3742H29.1867C30.7325 28.3742 32 27.1173 32 25.5627V6.81331C32 5.2675 30.7413 4.00003 29.1867 4.00003ZM28.7981 5.87497L16.0586 18.6144L3.20893 5.87497H28.7981ZM1.87494 25.1741V7.19145L10.9048 16.1442L1.87494 25.1741ZM3.20018 26.4993L12.2352 17.4642L15.4022 20.6031C15.768 20.9673 16.3598 20.9655 16.7239 20.5996L19.812 17.5132L28.7981 26.4993H3.20018ZM30.1251 25.1741L21.1373 16.188L30.1251 7.2002V25.1741Z" fill="#DDDDDD"/>
</svg>
