<svg width="16" height="16" viewBox="0 0 16 16" fill="none" xmlns="http://www.w3.org/2000/svg">
<path d="M9.23047 14.8945L8.42188 15.668C8.25781 15.832 8.05859 15.9141 7.82422 15.9141C7.58984 15.9141 7.39062 15.832 7.22656 15.668L0.40625 8.84766C0.242188 8.68359 0.160156 8.48438 0.160156 8.25C0.160156 8.01562 0.242188 7.81641 0.40625 7.65234L7.22656 0.832031C7.39062 0.667969 7.58984 0.585938 7.82422 0.585938C8.05859 0.585938 8.25781 0.667969 8.42188 0.832031L9.23047 1.60547C9.39453 1.76953 9.46484 1.96875 9.44141 2.20312C9.44141 2.4375 9.35938 2.63672 9.19531 2.80078L4.97656 6.84375H15.0664C15.3008 6.84375 15.5 6.92578 15.6641 7.08984C15.8281 7.25391 15.9102 7.45312 15.9102 7.6875V8.8125C15.9102 9.04688 15.8281 9.24609 15.6641 9.41016C15.5 9.57422 15.3008 9.65625 15.0664 9.65625H4.97656L9.19531 13.6992C9.35938 13.8633 9.44141 14.0625 9.44141 14.2969C9.46484 14.5312 9.39453 14.7305 9.23047 14.8945Z" fill="#A7B6C2"/>
</svg>
