<svg width="10" height="12" viewBox="0 0 10 12" fill="none" xmlns="http://www.w3.org/2000/svg">
<path d="M2.85924 5.57143V3.96429C2.85924 2.78404 3.82185 1.82143 5.00209 1.82143C6.18234 1.82143 7.14495 2.78404 7.14495 3.96429V5.57143H2.85924ZM9.82352 6.375C9.82352 5.93136 9.46359 5.57143 9.01995 5.57143H8.75209V3.96429C8.75209 1.90513 7.06124 0.214285 5.00209 0.214285C2.94294 0.214285 1.25209 1.90513 1.25209 3.96429V5.57143H0.984236C0.540597 5.57143 0.180664 5.93136 0.180664 6.375V11.1964C0.180664 11.6401 0.540597 12 0.984236 12H9.01995C9.46359 12 9.82352 11.6401 9.82352 11.1964V6.375Z" fill="#C7D7E2"/>
</svg>
