<svg width="14" height="15" viewBox="0 0 14 15" fill="none" xmlns="http://www.w3.org/2000/svg">
<path d="M9.67753 6.10714C9.67753 8.17466 7.99505 9.85714 5.92753 9.85714C3.86 9.85714 2.17753 8.17466 2.17753 6.10714C2.17753 4.03962 3.86 2.35714 5.92753 2.35714C7.99505 2.35714 9.67753 4.03962 9.67753 6.10714ZM13.9632 13.0714C13.9632 12.7868 13.8461 12.5106 13.6535 12.3181L10.7824 9.44699C11.4605 8.46763 11.8204 7.29576 11.8204 6.10714C11.8204 2.851 9.18366 0.214285 5.92753 0.214285C2.67139 0.214285 0.034668 2.851 0.034668 6.10714C0.034668 9.36328 2.67139 12 5.92753 12C7.11614 12 8.28802 11.6401 9.26737 10.9621L12.1385 13.8248C12.331 14.0257 12.6072 14.1429 12.8918 14.1429C13.4777 14.1429 13.9632 13.6574 13.9632 13.0714Z" fill="white"/>
</svg>
