<svg width="12" height="14" viewBox="0 0 12 14" fill="none" xmlns="http://www.w3.org/2000/svg">
<path d="M11.3603 10.8532C11.3603 8.65179 10.8162 6.10714 8.62312 6.10714C7.9451 6.76841 7.02434 7.17857 6.00314 7.17857C4.98193 7.17857 4.06117 6.76841 3.38316 6.10714C1.19008 6.10714 0.645996 8.65179 0.645996 10.8532C0.645996 12.0753 1.44957 13.0714 2.42892 13.0714H9.57736C10.5567 13.0714 11.3603 12.0753 11.3603 10.8532ZM9.21743 3.42857C9.21743 1.65402 7.77769 0.214285 6.00314 0.214285C4.22859 0.214285 2.78885 1.65402 2.78885 3.42857C2.78885 5.20312 4.22859 6.64286 6.00314 6.64286C7.77769 6.64286 9.21743 5.20312 9.21743 3.42857Z" fill="#C7D7E2"/>
</svg>
