<svg width="1336" height="1000" viewBox="0 0 1336 1000" fill="none" xmlns="http://www.w3.org/2000/svg">
<path d="M128.162 68.853C88.7763 68.5153 57.1148 100.373 56.777 139.759L56.897 559.454L56.995 564.433L57.3546 564.836C60.1655 582.595 75.4407 596.476 94.1913 596.399C110.251 596.552 117.191 588.914 118.847 586.714L233.367 450.556L464.836 450.393C504.222 450.73 535.883 418.873 535.818 379.846L535.774 139.585C535.709 100.558 503.851 68.8965 464.825 68.9619L128.162 68.853ZM74.0787 560.053L74.1223 559.29L74.0024 139.596C74.1767 109.765 98.4948 85.904 127.966 85.6752L464.629 85.7841C494.46 85.9584 518.723 109.917 518.549 139.748L518.996 379.65C518.821 409.481 494.503 433.342 465.032 433.57L225.533 433.658L106.089 575.655L105.686 576.014C104.88 576.733 102.058 579.25 94.0279 579.174C83.307 579.327 74.5908 571.177 74.0787 560.053Z" fill="url(#paint0_linear)"/>
<path d="M298.82 180.694C259.434 180.356 227.772 212.214 227.435 251.6L227.554 671.295L227.653 676.274L228.012 676.677C230.823 694.436 246.098 708.317 264.849 708.24C280.908 708.393 287.849 700.755 289.505 698.555L404.024 562.397L635.493 562.234C674.879 562.571 706.541 530.714 706.475 491.687L706.432 251.426C706.366 212.399 674.509 180.738 635.482 180.803L298.82 180.694ZM244.736 671.894L244.78 671.131L244.66 251.437C244.834 221.606 269.152 197.745 298.624 197.516L635.286 197.625C665.117 197.799 689.381 221.758 689.206 251.589L689.653 491.491C689.479 521.322 665.161 545.183 635.689 545.411L396.191 545.499L276.746 687.496L276.343 687.855C275.537 688.575 272.715 691.091 264.685 691.015C253.964 691.168 245.248 683.018 244.736 671.894Z" fill="url(#paint1_linear)"/>
<path d="M71.3854 360.733C31.9992 360.395 0.337744 392.253 0 431.639L0.119931 851.333L0.217983 856.313L0.57752 856.716C3.38849 874.475 18.6636 888.355 37.4143 888.279C53.4738 888.432 60.4141 880.794 62.0702 878.593L176.59 742.436L408.059 742.272C447.445 742.61 479.106 710.752 479.041 671.726L478.997 431.464C478.932 392.438 447.074 360.776 408.048 360.842L71.3854 360.733ZM17.3017 851.933L17.3453 851.17L17.2253 431.475C17.3996 401.644 41.7178 377.784 71.1893 377.555L407.852 377.664C437.683 377.838 461.946 401.797 461.772 431.628L462.219 671.53C462.044 701.361 437.726 725.221 408.255 725.45L168.756 725.537L49.3118 867.535L48.9087 867.894C48.1025 868.613 45.2806 871.13 37.2508 871.054C26.5299 871.206 17.8138 863.057 17.3017 851.933Z" fill="url(#paint2_linear)"/>
<path d="M927.936 0.00266092C888.549 -0.335085 856.888 31.5225 856.55 70.9087L856.67 490.603L856.768 495.583L857.128 495.986C859.939 513.745 875.214 527.625 893.964 527.549C910.024 527.702 916.964 520.064 918.62 517.863L1033.14 381.706L1264.61 381.542C1303.99 381.88 1335.66 350.022 1335.59 310.996L1335.55 70.7344C1335.48 31.7077 1303.62 0.0461903 1264.6 0.111567L927.936 0.00266092ZM873.852 491.203L873.895 490.44L873.776 70.7453C873.95 40.9142 898.268 17.0537 927.739 16.8249L1264.4 16.9338C1294.23 17.1081 1318.5 41.0667 1318.32 70.8978L1318.77 310.8C1318.59 340.631 1294.28 364.491 1264.8 364.72L1025.31 364.807L905.862 506.805L905.459 507.164C904.653 507.883 901.831 510.4 893.801 510.324C883.08 510.476 874.364 502.327 873.852 491.203Z" fill="url(#paint3_linear)"/>
<path d="M806.224 292.413C766.838 292.075 735.176 323.933 734.839 363.319L734.959 783.013L735.057 787.993L735.416 788.396C738.227 806.155 753.502 820.035 772.253 819.959C788.313 820.112 795.253 812.474 796.909 810.273L911.428 674.116L1142.9 673.952C1182.28 674.29 1213.95 642.432 1213.88 603.406L1213.84 363.144C1213.77 324.118 1181.91 292.456 1142.89 292.522L806.224 292.413ZM752.14 783.613L752.184 782.85L752.064 363.155C752.238 333.324 776.556 309.464 806.028 309.235L1142.69 309.344C1172.52 309.518 1196.79 333.477 1196.61 363.308L1197.06 603.21C1196.88 633.041 1172.56 656.901 1143.09 657.13L903.595 657.217L784.151 799.215L783.747 799.574C782.941 800.293 780.119 802.81 772.09 802.734C761.369 802.886 752.653 794.737 752.14 783.613Z" fill="url(#paint4_linear)"/>
<path d="M579.116 472.452C539.73 472.114 508.068 503.971 507.731 543.358L507.851 963.052L507.949 968.031L508.308 968.434C511.119 986.194 526.394 1000.07 545.145 999.998C561.204 1000.15 568.145 992.513 569.801 990.312L684.32 854.154L915.789 853.991C955.175 854.329 986.837 822.471 986.771 783.445L986.728 543.183C986.662 504.157 954.805 472.495 915.778 472.56L579.116 472.452ZM525.032 963.651L525.076 962.889L524.956 543.194C525.13 513.363 549.448 489.503 578.92 489.274L915.582 489.383C945.413 489.557 969.677 513.516 969.503 543.347L969.949 783.248C969.775 813.079 945.457 836.94 915.985 837.169L676.487 837.256L557.042 979.253L556.639 979.613C555.833 980.332 553.011 982.849 544.981 982.773C534.261 982.925 525.544 974.775 525.032 963.651Z" fill="url(#paint5_linear)"/>
<defs>
<linearGradient id="paint0_linear" x1="531.315" y1="50.1863" x2="128.192" y2="409.729" gradientUnits="userSpaceOnUse">
<stop stop-color="#00A7CF"/>
<stop offset="1" stop-color="#CCDC29"/>
</linearGradient>
<linearGradient id="paint1_linear" x1="701.973" y1="162.027" x2="298.85" y2="521.57" gradientUnits="userSpaceOnUse">
<stop stop-color="#00A7CF"/>
<stop offset="1" stop-color="#CCDC29"/>
</linearGradient>
<linearGradient id="paint2_linear" x1="474.539" y1="342.067" x2="71.416" y2="701.609" gradientUnits="userSpaceOnUse">
<stop stop-color="#00A7CF"/>
<stop offset="1" stop-color="#CCDC29"/>
</linearGradient>
<linearGradient id="paint3_linear" x1="1331.09" y1="-18.6647" x2="927.965" y2="340.878" gradientUnits="userSpaceOnUse">
<stop stop-color="#00A7CF"/>
<stop offset="1" stop-color="#CCDC29"/>
</linearGradient>
<linearGradient id="paint4_linear" x1="1209.38" y1="273.747" x2="806.255" y2="633.29" gradientUnits="userSpaceOnUse">
<stop stop-color="#00A7CF"/>
<stop offset="1" stop-color="#CCDC29"/>
</linearGradient>
<linearGradient id="paint5_linear" x1="982.27" y1="453.787" x2="579.148" y2="813.329" gradientUnits="userSpaceOnUse">
<stop stop-color="#00A7CF"/>
<stop offset="1" stop-color="#CCDC29"/>
</linearGradient>
</defs>
</svg>
