<svg width="354" height="38" viewBox="0 0 354 38" fill="none" xmlns="http://www.w3.org/2000/svg">
<path d="M56.8081 24.3146C56.8081 25.1852 56.5142 25.9143 55.9264 26.5021C55.3386 27.0899 54.6095 27.3838 53.7389 27.3838C52.7345 27.3838 51.8602 27.0118 51.1162 26.2678L42.4443 17.607C41.6035 16.7514 41.1831 15.7432 41.1831 14.5825C41.1831 13.3995 41.5923 12.395 42.4108 11.5691C43.2292 10.7432 44.23 10.3303 45.413 10.3303C46.5886 10.3303 47.6042 10.7506 48.4599 11.5914L55.2121 18.3548C55.2865 18.4292 55.3237 18.5111 55.3237 18.6003C55.3237 18.7194 55.2084 18.8942 54.9778 19.1249C54.7545 19.3481 54.5834 19.4597 54.4644 19.4597C54.3676 19.4597 54.2821 19.4225 54.2077 19.3481L47.4443 12.5736C46.8565 12.0006 46.1831 11.7142 45.4242 11.7142C44.6355 11.7142 43.9696 11.9932 43.4264 12.5512C42.8833 13.1093 42.6117 13.7826 42.6117 14.5713C42.6117 15.3526 42.8944 16.0259 43.4599 16.5914L52.1206 25.2633C52.5894 25.732 53.1288 25.9664 53.7389 25.9664C54.2151 25.9664 54.6095 25.8102 54.922 25.4977C55.2345 25.1852 55.3907 24.7908 55.3907 24.3146C55.3907 23.7045 55.1563 23.1651 54.6876 22.6963L48.2032 16.212C48.0098 16.0334 47.7865 15.9441 47.5336 15.9441C47.3178 15.9441 47.1392 16.0148 46.9978 16.1561C46.8565 16.2975 46.7858 16.4761 46.7858 16.6919C46.7858 16.93 46.8788 17.1495 47.0648 17.3503L51.6407 21.9262C51.7151 22.0006 51.7523 22.0825 51.7523 22.1718C51.7523 22.2908 51.637 22.4657 51.4063 22.6963C51.1757 22.927 51.0008 23.0423 50.8818 23.0423C50.7925 23.0423 50.7106 23.0051 50.6362 22.9307L46.0603 18.3548C45.5916 17.9009 45.3572 17.3466 45.3572 16.6919C45.3572 16.0817 45.5693 15.5646 45.9934 15.1405C46.4175 14.7164 46.9346 14.5044 47.5447 14.5044C48.1995 14.5044 48.7538 14.7387 49.2077 15.2075L55.692 21.6919C56.4361 22.421 56.8081 23.2953 56.8081 24.3146Z" fill="#A7B6C2"/>
<path d="M6.80497 13.7678C7.22163 14.1844 7.42997 14.6904 7.42997 15.2856C7.42997 15.8809 7.22163 16.3868 6.80497 16.8035C6.3883 17.2201 5.88235 17.4285 5.28711 17.4285C4.69187 17.4285 4.18592 17.2201 3.76925 16.8035C3.35259 16.3868 3.14425 15.8809 3.14425 15.2856C3.14425 14.6904 3.35259 14.1844 3.76925 13.7678C4.18592 13.3511 4.69187 13.1428 5.28711 13.1428C5.88235 13.1428 6.3883 13.3511 6.80497 13.7678ZM18.8585 19.5713V24.5713H3.14425V22.4285L6.71568 18.857L8.5014 20.6428L14.2157 14.9285L18.8585 19.5713ZM19.93 11.7142H2.07282C1.9761 11.7142 1.89053 11.7514 1.81613 11.8258C1.74916 11.8928 1.71568 11.9746 1.71568 12.0713V25.6428C1.71568 25.7395 1.74916 25.825 1.81613 25.8995C1.89053 25.9664 1.9761 25.9999 2.07282 25.9999H19.93C20.0267 25.9999 20.1085 25.9664 20.1755 25.8995C20.2499 25.825 20.2871 25.7395 20.2871 25.6428V12.0713C20.2871 11.9746 20.2499 11.8928 20.1755 11.8258C20.1085 11.7514 20.0267 11.7142 19.93 11.7142ZM21.7157 12.0713V25.6428C21.7157 26.1338 21.5408 26.5542 21.1911 26.9039C20.8414 27.2536 20.421 27.4285 19.93 27.4285H2.07282C1.58175 27.4285 1.16137 27.2536 0.811663 26.9039C0.461961 26.5542 0.287109 26.1338 0.287109 25.6428V12.0713C0.287109 11.5803 0.461961 11.1599 0.811663 10.8102C1.16137 10.4605 1.58175 10.2856 2.07282 10.2856H19.93C20.421 10.2856 20.8414 10.4605 21.1911 10.8102C21.5408 11.1599 21.7157 11.5803 21.7157 12.0713Z" fill="#A7B6C2"/>
<path d="M105.333 25.8325C105.883 26.0706 106.404 26.1896 106.895 26.1896C109.693 26.1896 111.092 24.9434 111.092 22.4508C111.092 21.6026 110.939 20.9329 110.634 20.4419C110.433 20.1145 110.203 19.8392 109.942 19.616C109.689 19.3928 109.44 19.2216 109.194 19.1026C108.949 18.9761 108.648 18.8831 108.29 18.8236C107.941 18.7566 107.628 18.7157 107.353 18.7008C107.085 18.6859 106.735 18.6785 106.304 18.6785C105.761 18.6785 105.385 18.7157 105.177 18.7901C105.177 19.1844 105.173 19.7759 105.165 20.5646C105.165 21.3533 105.165 21.9411 105.165 22.328C105.165 22.3875 105.162 22.6405 105.154 23.087C105.147 23.5259 105.143 23.8831 105.143 24.1584C105.151 24.4337 105.169 24.7462 105.199 25.0959C105.229 25.4381 105.273 25.6837 105.333 25.8325ZM105.177 17.5066C105.489 17.5587 105.895 17.5847 106.393 17.5847C107.003 17.5847 107.535 17.5364 107.989 17.4396C108.443 17.3429 108.852 17.1792 109.217 16.9486C109.581 16.7105 109.857 16.3756 110.043 15.9441C110.236 15.5125 110.333 14.9843 110.333 14.3593C110.333 13.8384 110.225 13.3846 110.009 12.9977C109.793 12.6033 109.5 12.2983 109.128 12.0825C108.755 11.8593 108.354 11.6956 107.922 11.5914C107.491 11.4873 107.029 11.4352 106.538 11.4352C106.166 11.4352 105.683 11.4835 105.087 11.5803C105.087 11.9523 105.102 12.514 105.132 13.2655C105.162 14.017 105.177 14.5825 105.177 14.962C105.177 15.1628 105.173 15.4605 105.165 15.8548C105.165 16.2492 105.165 16.5431 105.165 16.7365C105.165 17.0788 105.169 17.3355 105.177 17.5066ZM99.1387 27.4285L99.161 26.3794C99.2726 26.3496 99.5888 26.2901 100.11 26.2008C100.63 26.1115 101.025 26.0111 101.293 25.8995C101.345 25.8102 101.389 25.7097 101.427 25.5981C101.471 25.4865 101.505 25.3637 101.527 25.2298C101.549 25.0884 101.568 24.9657 101.583 24.8615C101.605 24.7573 101.616 24.6197 101.616 24.4486C101.624 24.27 101.628 24.1435 101.628 24.0691C101.628 23.9873 101.628 23.8533 101.628 23.6673C101.628 23.4813 101.628 23.3697 101.628 23.3325C101.628 16.0259 101.546 12.2127 101.382 11.8928C101.352 11.8332 101.27 11.7811 101.136 11.7365C101.003 11.6844 100.835 11.6435 100.634 11.6137C100.441 11.5765 100.258 11.5505 100.087 11.5356C99.9162 11.5133 99.7339 11.4947 99.5405 11.4798C99.3544 11.4649 99.2428 11.4538 99.2056 11.4463L99.161 10.52C99.8902 10.5051 101.155 10.4642 102.956 10.3972C104.756 10.3228 106.144 10.2856 107.119 10.2856C107.29 10.2856 107.543 10.2893 107.878 10.2968C108.212 10.2968 108.465 10.2968 108.636 10.2968C109.157 10.2968 109.663 10.3451 110.154 10.4419C110.653 10.5386 111.133 10.6948 111.594 10.9106C112.055 11.1264 112.457 11.3905 112.799 11.703C113.142 12.0155 113.417 12.4061 113.625 12.8749C113.834 13.3362 113.938 13.8459 113.938 14.4039C113.938 14.7908 113.875 15.148 113.748 15.4753C113.629 15.7953 113.484 16.0631 113.313 16.2789C113.149 16.4873 112.911 16.6993 112.598 16.9151C112.286 17.1309 112.014 17.2983 111.784 17.4173C111.553 17.5364 111.241 17.6852 110.846 17.8637C111.992 18.1242 112.944 18.6227 113.703 19.3593C114.47 20.0959 114.853 21.0185 114.853 22.1271C114.853 22.8712 114.723 23.5408 114.462 24.1361C114.202 24.7239 113.852 25.2075 113.413 25.587C112.982 25.9664 112.468 26.2826 111.873 26.5356C111.285 26.796 110.679 26.9783 110.054 27.0825C109.429 27.1867 108.774 27.2387 108.09 27.2387C107.762 27.2387 107.271 27.2276 106.616 27.2053C105.962 27.1829 105.471 27.1718 105.143 27.1718C104.354 27.1718 103.212 27.2127 101.717 27.2945C100.221 27.3764 99.3619 27.421 99.1387 27.4285Z" fill="#A7B6C2"/>
<path d="M139.287 27.4061L139.477 26.4575C139.641 26.4054 139.867 26.3422 140.158 26.2678C140.455 26.2008 140.723 26.1301 140.961 26.0557C141.207 25.9887 141.43 25.9032 141.631 25.799C141.839 25.5386 141.992 25.1628 142.088 24.6718C142.096 24.6197 142.327 23.5445 142.78 21.4463C143.234 19.3481 143.658 17.328 144.053 15.3861C144.447 13.4367 144.641 12.3317 144.633 12.0713V11.7923C144.455 11.6956 144.25 11.6286 144.019 11.5914C143.796 11.5468 143.539 11.517 143.249 11.5021C142.959 11.4798 142.743 11.4575 142.602 11.4352L142.814 10.2856C143.059 10.3005 143.506 10.3265 144.153 10.3637C144.801 10.3935 145.355 10.4195 145.816 10.4419C146.285 10.4567 146.735 10.4642 147.167 10.4642C147.524 10.4642 147.888 10.4567 148.26 10.4419C148.64 10.4195 149.09 10.3935 149.611 10.3637C150.139 10.3265 150.507 10.3005 150.716 10.2856C150.678 10.5758 150.608 10.9069 150.504 11.2789C150.28 11.3533 149.901 11.4612 149.365 11.6026C148.837 11.7365 148.435 11.8593 148.16 11.9709C148.1 12.1123 148.048 12.2722 148.004 12.4508C147.959 12.6219 147.926 12.7707 147.903 12.8972C147.881 13.0163 147.851 13.1837 147.814 13.3995C147.784 13.6152 147.762 13.7715 147.747 13.8682C147.546 14.9694 147.219 16.5319 146.765 18.5557C146.318 20.5721 146.032 21.8928 145.905 22.5178C145.891 22.5847 145.842 22.8005 145.76 23.1651C145.678 23.5297 145.604 23.8645 145.537 24.1695C145.47 24.4746 145.411 24.7871 145.359 25.107C145.306 25.4195 145.284 25.6316 145.292 25.7432L145.303 25.9441C145.429 25.9739 146.117 26.0892 147.367 26.2901C147.345 26.6175 147.286 26.9858 147.189 27.395C147.107 27.395 146.984 27.3987 146.821 27.4061C146.664 27.421 146.545 27.4285 146.463 27.4285C146.248 27.4285 145.924 27.3913 145.492 27.3169C145.061 27.2425 144.741 27.2053 144.533 27.2053C143.506 27.1904 142.739 27.1829 142.234 27.1829C141.854 27.1829 141.322 27.2164 140.638 27.2834C139.953 27.3503 139.503 27.3913 139.287 27.4061Z" fill="#A7B6C2"/>
<path d="M174.961 11.3459C174.686 11.331 174.519 11.3161 174.459 11.3012L174.426 10.3191C174.523 10.3117 174.671 10.3079 174.872 10.3079C175.319 10.3079 175.735 10.3228 176.122 10.3526C177.104 10.4047 177.722 10.4307 177.975 10.4307C178.615 10.4307 179.24 10.4195 179.85 10.3972C180.713 10.3675 181.256 10.3489 181.479 10.3414C181.896 10.3414 182.216 10.334 182.439 10.3191L182.428 10.4753L182.45 11.1896V11.2901C182.004 11.357 181.543 11.3905 181.066 11.3905C180.62 11.3905 180.326 11.4835 180.185 11.6695C180.088 11.7737 180.04 12.2648 180.04 13.1428C180.04 13.2395 180.04 13.3623 180.04 13.5111C180.047 13.6524 180.051 13.7454 180.051 13.7901L180.062 16.3459L180.218 19.4709C180.263 20.3935 180.453 21.145 180.787 21.7253C181.048 22.1643 181.405 22.5066 181.859 22.7521C182.514 23.1018 183.172 23.2767 183.834 23.2767C184.608 23.2767 185.319 23.1725 185.966 22.9642C186.383 22.8303 186.751 22.6405 187.071 22.395C187.428 22.1271 187.67 21.889 187.796 21.6807C188.064 21.264 188.261 20.8399 188.388 20.4084C188.544 19.8652 188.622 19.0133 188.622 17.8526C188.622 17.2648 188.607 16.7886 188.578 16.424C188.555 16.0594 188.514 15.6056 188.455 15.0624C188.403 14.5118 188.354 13.9166 188.31 13.2767L188.265 12.6182C188.228 12.1197 188.139 11.7923 187.997 11.6361C187.744 11.3756 187.458 11.2492 187.138 11.2566L186.022 11.2789L185.866 11.2454L185.888 10.2856H186.825L189.113 10.3972C189.679 10.4195 190.408 10.3823 191.301 10.2856L191.502 10.3079C191.546 10.5907 191.569 10.7804 191.569 10.8771C191.569 10.9292 191.554 11.0445 191.524 11.2231C191.189 11.3124 190.877 11.3608 190.586 11.3682C190.043 11.45 189.749 11.5133 189.705 11.5579C189.593 11.6695 189.537 11.8221 189.537 12.0155C189.537 12.0676 189.541 12.1681 189.549 12.3169C189.563 12.4657 189.571 12.581 189.571 12.6628C189.63 12.8042 189.712 14.2774 189.816 17.0825C189.861 18.5334 189.805 19.6643 189.649 20.4753C189.537 21.0408 189.385 21.4947 189.191 21.837C188.909 22.3206 188.492 22.7782 187.941 23.2097C187.383 23.6338 186.706 23.9649 185.91 24.203C185.099 24.4486 184.15 24.5713 183.064 24.5713C181.822 24.5713 180.765 24.4002 179.895 24.0579C179.009 23.7082 178.343 23.2544 177.897 22.6963C177.443 22.1309 177.134 21.4054 176.97 20.52C176.851 19.9248 176.792 19.0431 176.792 17.8749V14.1584C176.792 12.7596 176.729 11.9672 176.602 11.7811C176.416 11.5133 175.869 11.3682 174.961 11.3459ZM191.569 27.0713V26.357C191.569 26.2529 191.535 26.1673 191.468 26.1003C191.401 26.0334 191.316 25.9999 191.211 25.9999H174.783C174.679 25.9999 174.593 26.0334 174.526 26.1003C174.459 26.1673 174.426 26.2529 174.426 26.357V27.0713C174.426 27.1755 174.459 27.2611 174.526 27.328C174.593 27.395 174.679 27.4285 174.783 27.4285H191.211C191.316 27.4285 191.401 27.395 191.468 27.328C191.535 27.2611 191.569 27.1755 191.569 27.0713Z" fill="#A7B6C2"/>
<path d="M269 23.857V25.2856C269 25.4791 268.929 25.6465 268.788 25.7878C268.647 25.9292 268.479 25.9999 268.286 25.9999H249.714C249.521 25.9999 249.353 25.9292 249.212 25.7878C249.071 25.6465 249 25.4791 249 25.2856V23.857C249 23.6636 249.071 23.4962 249.212 23.3548C249.353 23.2134 249.521 23.1428 249.714 23.1428H268.286C268.479 23.1428 268.647 23.2134 268.788 23.3548C268.929 23.4962 269 23.6636 269 23.857ZM264.714 19.5713V20.9999C264.714 21.1934 264.644 21.3608 264.502 21.5021C264.361 21.6435 264.193 21.7142 264 21.7142H254C253.807 21.7142 253.639 21.6435 253.498 21.5021C253.356 21.3608 253.286 21.1934 253.286 20.9999V19.5713C253.286 19.3779 253.356 19.2105 253.498 19.0691C253.639 18.9277 253.807 18.857 254 18.857H264C264.193 18.857 264.361 18.9277 264.502 19.0691C264.644 19.2105 264.714 19.3779 264.714 19.5713ZM267.571 15.2856V16.7142C267.571 16.9076 267.501 17.075 267.359 17.2164C267.218 17.3578 267.051 17.4285 266.857 17.4285H251.143C250.949 17.4285 250.782 17.3578 250.641 17.2164C250.499 17.075 250.429 16.9076 250.429 16.7142V15.2856C250.429 15.0922 250.499 14.9248 250.641 14.7834C250.782 14.642 250.949 14.5713 251.143 14.5713H266.857C267.051 14.5713 267.218 14.642 267.359 14.7834C267.501 14.9248 267.571 15.0922 267.571 15.2856ZM263.286 10.9999V12.4285C263.286 12.6219 263.215 12.7893 263.074 12.9307C262.932 13.0721 262.765 13.1428 262.571 13.1428H255.429C255.235 13.1428 255.068 13.0721 254.926 12.9307C254.785 12.7893 254.714 12.6219 254.714 12.4285V10.9999C254.714 10.8064 254.785 10.639 254.926 10.4977C255.068 10.3563 255.235 10.2856 255.429 10.2856H262.571C262.765 10.2856 262.932 10.3563 263.074 10.4977C263.215 10.639 263.286 10.8064 263.286 10.9999Z" fill="#A7B6C2"/>
<path d="M345 23.857V25.2856C345 25.4791 344.929 25.6465 344.788 25.7878C344.647 25.9292 344.479 25.9999 344.286 25.9999H325.714C325.521 25.9999 325.353 25.9292 325.212 25.7878C325.071 25.6465 325 25.4791 325 25.2856V23.857C325 23.6636 325.071 23.4962 325.212 23.3548C325.353 23.2134 325.521 23.1428 325.714 23.1428H344.286C344.479 23.1428 344.647 23.2134 344.788 23.3548C344.929 23.4962 345 23.6636 345 23.857ZM345 19.5713V20.9999C345 21.1934 344.929 21.3608 344.788 21.5021C344.647 21.6435 344.479 21.7142 344.286 21.7142H325.714C325.521 21.7142 325.353 21.6435 325.212 21.5021C325.071 21.3608 325 21.1934 325 20.9999V19.5713C325 19.3779 325.071 19.2105 325.212 19.0691C325.353 18.9277 325.521 18.857 325.714 18.857H344.286C344.479 18.857 344.647 18.9277 344.788 19.0691C344.929 19.2105 345 19.3779 345 19.5713ZM345 15.2856V16.7142C345 16.9076 344.929 17.075 344.788 17.2164C344.647 17.3578 344.479 17.4285 344.286 17.4285H325.714C325.521 17.4285 325.353 17.3578 325.212 17.2164C325.071 17.075 325 16.9076 325 16.7142V15.2856C325 15.0922 325.071 14.9248 325.212 14.7834C325.353 14.642 325.521 14.5713 325.714 14.5713H344.286C344.479 14.5713 344.647 14.642 344.788 14.7834C344.929 14.9248 345 15.0922 345 15.2856ZM345 10.9999V12.4285C345 12.6219 344.929 12.7893 344.788 12.9307C344.647 13.0721 344.479 13.1428 344.286 13.1428H325.714C325.521 13.1428 325.353 13.0721 325.212 12.9307C325.071 12.7893 325 12.6219 325 12.4285V10.9999C325 10.8064 325.071 10.639 325.212 10.4977C325.353 10.3563 325.521 10.2856 325.714 10.2856H344.286C344.479 10.2856 344.647 10.3563 344.788 10.4977C344.929 10.639 345 10.8064 345 10.9999Z" fill="#A7B6C2"/>
<path d="M231 23.857V25.2856C231 25.4791 230.929 25.6465 230.788 25.7878C230.647 25.9292 230.479 25.9999 230.286 25.9999H211.714C211.521 25.9999 211.353 25.9292 211.212 25.7878C211.071 25.6465 211 25.4791 211 25.2856V23.857C211 23.6636 211.071 23.4962 211.212 23.3548C211.353 23.2134 211.521 23.1428 211.714 23.1428H230.286C230.479 23.1428 230.647 23.2134 230.788 23.3548C230.929 23.4962 231 23.6636 231 23.857ZM226.714 19.5713V20.9999C226.714 21.1934 226.644 21.3608 226.502 21.5021C226.361 21.6435 226.193 21.7142 226 21.7142H211.714C211.521 21.7142 211.353 21.6435 211.212 21.5021C211.071 21.3608 211 21.1934 211 20.9999V19.5713C211 19.3779 211.071 19.2105 211.212 19.0691C211.353 18.9277 211.521 18.857 211.714 18.857H226C226.193 18.857 226.361 18.9277 226.502 19.0691C226.644 19.2105 226.714 19.3779 226.714 19.5713ZM229.571 15.2856V16.7142C229.571 16.9076 229.501 17.075 229.359 17.2164C229.218 17.3578 229.051 17.4285 228.857 17.4285H211.714C211.521 17.4285 211.353 17.3578 211.212 17.2164C211.071 17.075 211 16.9076 211 16.7142V15.2856C211 15.0922 211.071 14.9248 211.212 14.7834C211.353 14.642 211.521 14.5713 211.714 14.5713H228.857C229.051 14.5713 229.218 14.642 229.359 14.7834C229.501 14.9248 229.571 15.0922 229.571 15.2856ZM225.286 10.9999V12.4285C225.286 12.6219 225.215 12.7893 225.074 12.9307C224.932 13.0721 224.765 13.1428 224.571 13.1428H211.714C211.521 13.1428 211.353 13.0721 211.212 12.9307C211.071 12.7893 211 12.6219 211 12.4285V10.9999C211 10.8064 211.071 10.639 211.212 10.4977C211.353 10.3563 211.521 10.2856 211.714 10.2856H224.571C224.765 10.2856 224.932 10.3563 225.074 10.4977C225.215 10.639 225.286 10.8064 225.286 10.9999Z" fill="#A7B6C2"/>
<path d="M307 23.857V25.2856C307 25.4791 306.929 25.6465 306.788 25.7878C306.647 25.9292 306.479 25.9999 306.286 25.9999H287.714C287.521 25.9999 287.353 25.9292 287.212 25.7878C287.071 25.6465 287 25.4791 287 25.2856V23.857C287 23.6636 287.071 23.4962 287.212 23.3548C287.353 23.2134 287.521 23.1428 287.714 23.1428H306.286C306.479 23.1428 306.647 23.2134 306.788 23.3548C306.929 23.4962 307 23.6636 307 23.857ZM307 19.5713V20.9999C307 21.1934 306.929 21.3608 306.788 21.5021C306.647 21.6435 306.479 21.7142 306.286 21.7142H292C291.807 21.7142 291.639 21.6435 291.498 21.5021C291.356 21.3608 291.286 21.1934 291.286 20.9999V19.5713C291.286 19.3779 291.356 19.2105 291.498 19.0691C291.639 18.9277 291.807 18.857 292 18.857H306.286C306.479 18.857 306.647 18.9277 306.788 19.0691C306.929 19.2105 307 19.3779 307 19.5713ZM307 15.2856V16.7142C307 16.9076 306.929 17.075 306.788 17.2164C306.647 17.3578 306.479 17.4285 306.286 17.4285H289.143C288.949 17.4285 288.782 17.3578 288.641 17.2164C288.499 17.075 288.429 16.9076 288.429 16.7142V15.2856C288.429 15.0922 288.499 14.9248 288.641 14.7834C288.782 14.642 288.949 14.5713 289.143 14.5713H306.286C306.479 14.5713 306.647 14.642 306.788 14.7834C306.929 14.9248 307 15.0922 307 15.2856ZM307 10.9999V12.4285C307 12.6219 306.929 12.7893 306.788 12.9307C306.647 13.0721 306.479 13.1428 306.286 13.1428H293.429C293.235 13.1428 293.068 13.0721 292.926 12.9307C292.785 12.7893 292.714 12.6219 292.714 12.4285V10.9999C292.714 10.8064 292.785 10.639 292.926 10.4977C293.068 10.3563 293.235 10.2856 293.429 10.2856H306.286C306.479 10.2856 306.647 10.3563 306.788 10.4977C306.929 10.639 307 10.8064 307 10.9999Z" fill="#A7B6C2"/>
</svg>
